{
  "accessors": [
    {
      "bufferView": 2,
      "componentType": 5126,
      "count": 4482,
      "max": [
        562.35693359375,
        449.31207275390625,
        304.67526245117188
      ],
      "min": [
        -1037.6424560546875,
        -449.31207275390625,
        -115.06996154785156
      ],
      "type": "VEC3"
    },
    {
      "bufferView": 2,
      "byteOffset": 53784,
      "componentType": 5126,
      "count": 4482,
      "max": [
        1,
        1,
        1
      ],
      "min": [
        -1,
        -1,
        -1
      ],
      "type": "VEC3"
    },
    {
      "bufferView": 3,
      "componentType": 5126,
      "count": 4482,
      "max": [
        1,
        0.9998849630355835,
        1,
        1
      ],
      "min": [
        -1,
        -0.9998849630355835,
        -1,
        -1
      ],
      "type": "VEC4"
    },
    {
      "bufferView": 1,
      "componentType": 5126,
      "count": 4482,
      "max": [
        1.20455002784729,
        1.2791099548339844
      ],
      "min": [
        0,
        -0.0034700001124292612
      ],
      "type": "VEC2"
    },
    {
      "bufferView": 0,
      "componentType": 5125,
      "count": 8286,
      "max": [
        4481
      ],
      "min": [
        0
      ],
      "type": "SCALAR"
    },
    {
      "bufferView": 2,
      "byteOffset": 107568,
      "componentType": 5126,
      "count": 26360,
      "max": [
        -428.41802978515625,
        265.46453857421875,
        367.75302124023438
      ],
      "min": [
        -1012.384765625,
        -265.46453857421875,
        -102.34264373779297
      ],
      "type": "VEC3"
    },
    {
      "bufferView": 2,
      "byteOffset": 423888,
      "componentType": 5126,
      "count": 26360,
      "max": [
        1,
        1,
        1
      ],
      "min": [
        -1,
        -1,
        -1
      ],
      "type": "VEC3"
    },
    {
      "bufferView": 3,
      "byteOffset": 71712,
      "componentType": 5126,
      "count": 26360,
      "max": [
        1,
        1,
        1,
        1
      ],
      "min": [
        -1,
        -1,
        -1,
        -1
      ],
      "type": "VEC4"
    },
    {
      "bufferView": 1,
      "byteOffset": 35856,
      "componentType": 5126,
      "count": 26360,
      "max": [
        1,
        1
      ],
      "min": [
        0,
        0
      ],
      "type": "VEC2"
    },
    {
      "bufferView": 0,
      "byteOffset": 33144,
      "componentType": 5125,
      "count": 39996,
      "max": [
        26359
      ],
      "min": [
        0
      ],
      "type": "SCALAR"
    },
    {
      "bufferView": 2,
      "byteOffset": 740208,
      "componentType": 5126,
      "count": 7496,
      "max": [
        -810.08270263671875,
        135.97622680664062,
        304.22244262695312
      ],
      "min": [
        -871.30126953125,
        -135.97622680664062,
        221.95762634277344
      ],
      "type": "VEC3"
    },
    {
      "bufferView": 2,
      "byteOffset": 830160,
      "componentType": 5126,
      "count": 7496,
      "max": [
        1,
        0.99792701005935669,
        1
      ],
      "min": [
        -1,
        -0.99792701005935669,
        -1
      ],
      "type": "VEC3"
    },
    {
      "bufferView": 3,
      "byteOffset": 493472,
      "componentType": 5126,
      "count": 7496,
      "max": [
        1,
        1,
        1,
        1
      ],
      "min": [
        -1,
        -1,
        -0.99894815683364868,
        -1
      ],
      "type": "VEC4"
    },
    {
      "bufferView": 1,
      "byteOffset": 246736,
      "componentType": 5126,
      "count": 7496,
      "max": [
        1,
        1
      ],
      "min": [
        0,
        0
      ],
      "type": "VEC2"
    },
    {
      "bufferView": 0,
      "byteOffset": 193128,
      "componentType": 5125,
      "count": 11256,
      "max": [
        7495
      ],
      "min": [
        0
      ],
      "type": "SCALAR"
    },
    {
      "bufferView": 2,
      "byteOffset": 920112,
      "componentType": 5126,
      "count": 9152,
      "max": [
        -963.24078369140625,
        251.1461181640625,
        47.982269287109375
      ],
      "min": [
        -991.6229248046875,
        -251.1461181640625,
        -48.168659210205078
      ],
      "type": "VEC3"
    },
    {
      "bufferView": 2,
      "byteOffset": 1029936,
      "componentType": 5126,
      "count": 9152,
      "max": [
        0,
        1,
        1
      ],
      "min": [
        -1,
        -1,
        -1
      ],
      "type": "VEC3"
    },
    {
      "bufferView": 3,
      "byteOffset": 613408,
      "componentType": 5126,
      "count": 9152,
      "max": [
        0.92910772562026978,
        1,
        1,
        1
      ],
      "min": [
        0,
        -1,
        -1,
        -1
      ],
      "type": "VEC4"
    },
    {
      "bufferView": 1,
      "byteOffset": 306704,
      "componentType": 5126,
      "count": 9152,
      "max": [
        1,
        1
      ],
      "min": [
        0,
        0
      ],
      "type": "VEC2"
    },
    {
      "bufferView": 0,
      "byteOffset": 238152,
      "componentType": 5125,
      "count": 13776,
      "max": [
        9151
      ],
      "min": [
        0
      ],
      "type": "SCALAR"
    },
    {
      "bufferView": 2,
      "byteOffset": 1139760,
      "componentType": 5126,
      "count": 992,
      "max": [
        544.78961181640625,
        428.303466796875,
        286.625732421875
      ],
      "min": [
        -997.12371826171875,
        -428.303466796875,
        -103.84140014648438
      ],
      "type": "VEC3"
    },
    {
      "bufferView": 2,
      "byteOffset": 1151664,
      "componentType": 5126,
      "count": 992,
      "max": [
        1,
        1,
        0.97600698471069336
      ],
      "min": [
        -1,
        -1,
        -0.97512418031692505
      ],
      "type": "VEC3"
    },
    {
      "bufferView": 3,
      "byteOffset": 759840,
      "componentType": 5126,
      "count": 992,
      "max": [
        0.99907183647155762,
        0.99854356050491333,
        1,
        1
      ],
      "min": [
        -1,
        -0.99854356050491333,
        -1,
        -1
      ],
      "type": "VEC4"
    },
    {
      "bufferView": 1,
      "byteOffset": 379920,
      "componentType": 5126,
      "count": 992,
      "max": [
        1.8659399747848511,
        1.8086199760437012
      ],
      "min": [
        -0.7891700267791748,
        -0.71257001161575317
      ],
      "type": "VEC2"
    },
    {
      "bufferView": 0,
      "byteOffset": 293256,
      "componentType": 5125,
      "count": 1512,
      "max": [
        991
      ],
      "min": [
        0
      ],
      "type": "SCALAR"
    },
    {
      "bufferView": 2,
      "byteOffset": 1163568,
      "componentType": 5126,
      "count": 256,
      "max": [
        -89.377876281738281,
        56.774490356445312,
        3.3198399543762207
      ],
      "min": [
        -203.80171203613281,
        -56.774490356445312,
        -11.421830177307129
      ],
      "type": "VEC3"
    },
    {
      "bufferView": 2,
      "byteOffset": 1166640,
      "componentType": 5126,
      "count": 256,
      "max": [
        1,
        1,
        1
      ],
      "min": [
        -1,
        -1,
        -1
      ],
      "type": "VEC3"
    },
    {
      "bufferView": 3,
      "byteOffset": 775712,
      "componentType": 5126,
      "count": 256,
      "max": [
        0,
        0,
        0,
        1
      ],
      "min": [
        0,
        0,
        0,
        1
      ],
      "type": "VEC4"
    },
    {
      "bufferView": 1,
      "byteOffset": 387856,
      "componentType": 5126,
      "count": 256,
      "max": [
        0,
        0
      ],
      "min": [
        0,
        0
      ],
      "type": "VEC2"
    },
    {
      "bufferView": 0,
      "byteOffset": 299304,
      "componentType": 5125,
      "count": 480,
      "max": [
        255
      ],
      "min": [
        0
      ],
      "type": "SCALAR"
    },
    {
      "bufferView": 2,
      "byteOffset": 1169712,
      "componentType": 5126,
      "count": 828,
      "max": [
        -619.4505615234375,
        207.89324951171875,
        6.2129697799682617
      ],
      "min": [
        -752.867431640625,
        -207.89324951171875,
        -6.4977798461914062
      ],
      "type": "VEC3"
    },
    {
      "bufferView": 2,
      "byteOffset": 1179648,
      "componentType": 5126,
      "count": 828,
      "max": [
        0.99780178070068359,
        0.9998820424079895,
        0.99191504716873169
      ],
      "min": [
        -0.065970331430435181,
        -0.9998820424079895,
        -0.99191612005233765
      ],
      "type": "VEC3"
    },
    {
      "bufferView": 3,
      "byteOffset": 779808,
      "componentType": 5126,
      "count": 828,
      "max": [
        0,
        0,
        0,
        1
      ],
      "min": [
        0,
        0,
        0,
        1
      ],
      "type": "VEC4"
    },
    {
      "bufferView": 1,
      "byteOffset": 389904,
      "componentType": 5126,
      "count": 828,
      "max": [
        0,
        0
      ],
      "min": [
        0,
        0
      ],
      "type": "VEC2"
    },
    {
      "bufferView": 0,
      "byteOffset": 301224,
      "componentType": 5125,
      "count": 1440,
      "max": [
        827
      ],
      "min": [
        0
      ],
      "type": "SCALAR"
    },
    {
      "bufferView": 2,
      "byteOffset": 1189584,
      "componentType": 5126,
      "count": 31434,
      "max": [
        -177.83273315429688,
        216.79475402832031,
        15.443929672241211
      ],
      "min": [
        -778.927001953125,
        -216.79475402832031,
        -21.66057014465332
      ],
      "type": "VEC3"
    },
    {
      "bufferView": 2,
      "byteOffset": 1566792,
      "componentType": 5126,
      "count": 31434,
      "max": [
        1,
        1,
        0.99694395065307617
      ],
      "min": [
        -1,
        -1,
        -0.99447965621948242
      ],
      "type": "VEC3"
    },
    {
      "bufferView": 3,
      "byteOffset": 793056,
      "componentType": 5126,
      "count": 31434,
      "max": [
        1,
        1,
        0.98999816179275513,
        1
      ],
      "min": [
        -0.057653781026601791,
        -1,
        -0.9982486367225647,
        -1
      ],
      "type": "VEC4"
    },
    {
      "bufferView": 1,
      "byteOffset": 396528,
      "componentType": 5126,
      "count": 31434,
      "max": [
        0.60949999094009399,
        0.55212998390197754
      ],
      "min": [
        0,
        0
      ],
      "type": "VEC2"
    },
    {
      "bufferView": 0,
      "byteOffset": 306984,
      "componentType": 5125,
      "count": 70272,
      "max": [
        31433
      ],
      "min": [
        0
      ],
      "type": "SCALAR"
    }
  ],
  "asset": {
    "extras": {
      "author": "Digital Sock (https://sketchfab.com/DigitalSock)",
      "license": "CC-BY-4.0 (http://creativecommons.org/licenses/by/4.0/)",
      "source": "https://sketchfab.com/3d-models/low-poly-imperial-star-destroyer-224ad417d1e246019fe35966a72e5125",
      "title": "Low Poly Imperial Star Destroyer"
    },
    "generator": "Sketchfab-5.88.0",
    "version": "2.0"
  },
  "bufferViews": [
    {
      "buffer": 0,
      "byteLength": 588072,
      "byteOffset": 0,
      "name": "floatBufferViews",
      "target": 34963
    },
    {
      "buffer": 0,
      "byteLength": 648000,
      "byteOffset": 588072,
      "byteStride": 8,
      "name": "floatBufferViews",
      "target": 34962
    },
    {
      "buffer": 0,
      "byteLength": 1944000,
      "byteOffset": 1236072,
      "byteStride": 12,
      "name": "floatBufferViews",
      "target": 34962
    },
    {
      "buffer": 0,
      "byteLength": 1296000,
      "byteOffset": 3180072,
      "byteStride": 16,
      "name": "floatBufferViews",
      "target": 34962
    }
  ],
  "buffers": [
    {
      "byteLength": 4476072,
      "uri": "scene.bin"
    }
  ],
  "images": [
    {
      "uri": "textures/Hull.002_metallicRoughness.png"
    },
    {
      "uri": "textures/Hull_Minor.002_metallicRoughness.png"
    },
    {
      "uri": "textures/Hull_Minor.002_emissive.jpeg"
    }
  ],
  "materials": [
    {
      "doubleSided": true,
      "name": "Hull.002",
      "pbrMetallicRoughness": {
        "baseColorFactor": [
          0.51391006097560976,
          0.51391006097560976,
          0.51391006097560976,
          1
        ],
        "metallicFactor": 0.58098323170731703,
        "metallicRoughnessTexture": {
          "index": 0,
          "texCoord": 0
        },
        "roughnessFactor": 0.52610518292682928
      }
    },
    {
      "doubleSided": true,
      "name": "Detailing.002",
      "pbrMetallicRoughness": {
        "baseColorFactor": [
          0.45903201219512196,
          0.45903201219512196,
          0.45903201219512196,
          1
        ],
        "metallicFactor": 0.3675685975609756,
        "roughnessFactor": 0.67854420731707321
      }
    },
    {
      "alphaMode": "BLEND",
      "doubleSided": true,
      "emissiveFactor": [
        0.44688397304958138,
        0.64488293950233755,
        0.9246842565836898
      ],
      "name": "Engine_Lighting.002",
      "pbrMetallicRoughness": {
        "baseColorFactor": [
          1,
          1,
          1,
          0.37976371951219512
        ],
        "metallicFactor": 1,
        "roughnessFactor": 0.59999999999999998
      }
    },
    {
      "doubleSided": true,
      "emissiveFactor": [
        1,
        1,
        1
      ],
      "emissiveTexture": {
        "index": 2,
        "texCoord": 0
      },
      "name": "Hull_Minor.002",
      "occlusionTexture": {
        "index": 1,
        "strength": 1,
        "texCoord": 0
      },
      "pbrMetallicRoughness": {
        "baseColorFactor": [
          0.43464176829268292,
          0.43464176829268292,
          0.43464176829268292,
          1
        ],
        "metallicFactor": 0.55049542682926833,
        "metallicRoughnessTexture": {
          "index": 1,
          "texCoord": 0
        },
        "roughnessFactor": 0.59317835365853655
      }
    },
    {
      "doubleSided": true,
      "name": "Hangar_Lighting.002",
      "pbrMetallicRoughness": {
        "baseColorFactor": [
          1,
          1,
          1,
          1
        ],
        "metallicFactor": 1,
        "roughnessFactor": 0.59999999999999998
      }
    }
  ],
  "meshes": [
    {
      "name": "ISD Hull_0",
      "primitives": [
        {
          "attributes": {
            "NORMAL": 1,
            "POSITION": 0,
            "TANGENT": 2,
            "TEXCOORD_0": 3
          },
          "indices": 4,
          "material": 0,
          "mode": 4
        }
      ]
    },
    {
      "name": "ISD Details_0",
      "primitives": [
        {
          "attributes": {
            "NORMAL": 6,
            "POSITION": 5,
            "TANGENT": 7,
            "TEXCOORD_0": 8
          },
          "indices": 9,
          "material": 0,
          "mode": 4
        }
      ]
    },
    {
      "name": "ISD Details_1",
      "primitives": [
        {
          "attributes": {
            "NORMAL": 11,
            "POSITION": 10,
            "TANGENT": 12,
            "TEXCOORD_0": 13
          },
          "indices": 14,
          "material": 1,
          "mode": 4
        }
      ]
    },
    {
      "name": "ISD Details_2",
      "primitives": [
        {
          "attributes": {
            "NORMAL": 16,
            "POSITION": 15,
            "TANGENT": 17,
            "TEXCOORD_0": 18
          },
          "indices": 19,
          "material": 2,
          "mode": 4
        }
      ]
    },
    {
      "name": "ISD Greeblies_0",
      "primitives": [
        {
          "attributes": {
            "NORMAL": 21,
            "POSITION": 20,
            "TANGENT": 22,
            "TEXCOORD_0": 23
          },
          "indices": 24,
          "material": 3,
          "mode": 4
        }
      ]
    },
    {
      "name": "ISD Greeblies_1",
      "primitives": [
        {
          "attributes": {
            "NORMAL": 26,
            "POSITION": 25,
            "TANGENT": 27,
            "TEXCOORD_0": 28
          },
          "indices": 29,
          "material": 4,
          "mode": 4
        }
      ]
    },
    {
      "name": "ISD Weapons_0",
      "primitives": [
        {
          "attributes": {
            "NORMAL": 31,
            "POSITION": 30,
            "TANGENT": 32,
            "TEXCOORD_0": 33
          },
          "indices": 34,
          "material": 1,
          "mode": 4
        }
      ]
    },
    {
      "name": "ISD Weapons_1",
      "primitives": [
        {
          "attributes": {
            "NORMAL": 36,
            "POSITION": 35,
            "TANGENT": 37,
            "TEXCOORD_0": 38
          },
          "indices": 39,
          "material": 3,
          "mode": 4
        }
      ]
    }
  ],
  "nodes": [
    {
      "children": [
        1
      ],
      "name": "RootNode (gltf orientation matrix)",
      "rotation": [
        -0.70710678118654746,
        -0,
        -0,
        0.70710678118654757
      ]
    },
    {
      "children": [
        2
      ],
      "name": "RootNode (model correction matrix)"
    },
    {
      "children": [
        3
      ],
      "name": "Root"
    },
    {
      "children": [
        4,
        5,
        9,
        12
      ],
      "matrix": [
        1,
        0,
        0,
        0,
        0,
        1,
        0,
        0,
        0,
        0,
        1,
        0,
        -0.027320000000000007,
        0.00043000000000000015,
        0.0047000000000000011,
        1
      ],
      "name": "ISD Hull"
    },
    {
      "mesh": 0,
      "name": "ISD Hull_0"
    },
    {
      "children": [
        6,
        7,
        8
      ],
      "matrix": [
        1,
        0,
        0,
        0,
        0,
        1,
        0,
        0,
        0,
        0,
        1,
        0,
        1.0000000000000004e-05,
        -0,
        0,
        1
      ],
      "name": "ISD Details"
    },
    {
      "mesh": 1,
      "name": "ISD Details_0"
    },
    {
      "mesh": 2,
      "name": "ISD Details_1"
    },
    {
      "mesh": 3,
      "name": "ISD Details_2"
    },
    {
      "children": [
        10,
        11
      ],
      "matrix": [
        1,
        0,
        0,
        0,
        0,
        1,
        0,
        0,
        0,
        0,
        1,
        0,
        1.0000000000000004e-05,
        -0,
        0,
        1
      ],
      "name": "ISD Greeblies"
    },
    {
      "mesh": 4,
      "name": "ISD Greeblies_0"
    },
    {
      "mesh": 5,
      "name": "ISD Greeblies_1"
    },
    {
      "children": [
        13,
        14
      ],
      "matrix": [
        1,
        0,
        0,
        0,
        0,
        1,
        0,
        0,
        0,
        0,
        1,
        0,
        5.7426400000000006,
        0,
        64.280940000000001,
        1
      ],
      "name": "ISD Weapons"
    },
    {
      "mesh": 6,
      "name": "ISD Weapons_0"
    },
    {
      "mesh": 7,
      "name": "ISD Weapons_1"
    }
  ],
  "samplers": [
    {
      "magFilter": 9729,
      "minFilter": 9987,
      "wrapS": 10497,
      "wrapT": 10497
    }
  ],
  "scene": 0,
  "scenes": [
    {
      "name": "OSG_Scene",
      "nodes": [
        0
      ]
    }
  ],
  "textures": [
    {
      "sampler": 0,
      "source": 0
    },
    {
      "sampler": 0,
      "source": 1
    },
    {
      "sampler": 0,
      "source": 2
    }
  ]
}

